<svg width="27" height="24" viewBox="0 0 27 24" fill="none" xmlns="http://www.w3.org/2000/svg">
<path d="M25.7672 5.81719C25.4719 4.70625 24.6047 3.83438 23.5032 3.53906C21.5063 3 13.5 3 13.5 3C13.5 3 5.4938 3 3.49692 3.53906C2.39536 3.83438 1.52817 4.70625 1.23286 5.81719C0.698486 7.82812 0.698486 12.0187 0.698486 12.0187C0.698486 12.0187 0.698486 16.2094 1.23286 18.2203C1.52817 19.3313 2.39536 20.1656 3.49692 20.4609C5.4938 21 13.5 21 13.5 21C13.5 21 21.5063 21 23.5032 20.4609C24.6047 20.1656 25.4719 19.3266 25.7672 18.2203C26.3016 16.2094 26.3016 12.0187 26.3016 12.0187C26.3016 12.0187 26.3016 7.82812 25.7672 5.81719ZM10.8844 15.825V8.2125L17.5735 12.0187L10.8844 15.825Z" fill="#009FEE"/>
</svg>
