<svg width="20" height="20" viewBox="0 0 20 20" fill="none" xmlns="http://www.w3.org/2000/svg">
<mask id="mask0_3047_5099" style="mask-type:alpha" maskUnits="userSpaceOnUse" x="0" y="0" width="20" height="20">
<rect width="20" height="20" fill="#D9D9D9"/>
</mask>
<g mask="url(#mask0_3047_5099)">
<path d="M13.4583 10.8333H4.16668C3.93057 10.8333 3.73265 10.7534 3.57293 10.5937C3.4132 10.434 3.33334 10.2361 3.33334 9.99997C3.33334 9.76386 3.4132 9.56594 3.57293 9.40622C3.73265 9.2465 3.93057 9.16664 4.16668 9.16664H13.4583L11.0833 6.79164C10.9167 6.62497 10.8368 6.43052 10.8438 6.2083C10.8507 5.98608 10.9306 5.79164 11.0833 5.62497C11.25 5.4583 11.4479 5.3715 11.6771 5.36455C11.9063 5.35761 12.1042 5.43747 12.2708 5.60414L16.0833 9.41664C16.1667 9.49997 16.2257 9.59025 16.2604 9.68747C16.2951 9.78469 16.3125 9.88886 16.3125 9.99997C16.3125 10.1111 16.2951 10.2152 16.2604 10.3125C16.2257 10.4097 16.1667 10.5 16.0833 10.5833L12.2708 14.3958C12.1042 14.5625 11.9063 14.6423 11.6771 14.6354C11.4479 14.6284 11.25 14.5416 11.0833 14.375C10.9306 14.2083 10.8507 14.0139 10.8438 13.7916C10.8368 13.5694 10.9167 13.375 11.0833 13.2083L13.4583 10.8333Z" fill="#132968"/>
</g>
</svg>
