<svg width="20" height="20" viewBox="0 0 20 20" fill="none" xmlns="http://www.w3.org/2000/svg">
<mask id="mask0_4906_1017" style="mask-type:alpha" maskUnits="userSpaceOnUse" x="0" y="0" width="20" height="20">
<rect width="20" height="20" fill="#D9D9D9"/>
</mask>
<g mask="url(#mask0_4906_1017)">
<path d="M7.50006 13.3814C6.96481 13.3814 6.51048 13.1947 6.13708 12.8213C5.76369 12.4479 5.577 11.9936 5.577 11.4583C5.577 10.9231 5.76369 10.4687 6.13708 10.0954C6.51048 9.72196 6.96481 9.53526 7.50006 9.53526C8.03531 9.53526 8.48964 9.72196 8.86304 10.0954C9.23643 10.4687 9.42312 10.9231 9.42312 11.4583C9.42312 11.9936 9.23643 12.4479 8.86304 12.8213C8.48964 13.1947 8.03531 13.3814 7.50006 13.3814ZM4.42316 17.9167C4.00222 17.9167 3.64591 17.7708 3.35425 17.4792C3.06258 17.1875 2.91675 16.8312 2.91675 16.4102V5.25644C2.91675 4.8355 3.06258 4.47919 3.35425 4.18753C3.64591 3.89586 4.00222 3.75003 4.42316 3.75003H5.57702V2.62821C5.57702 2.44553 5.63819 2.29303 5.76052 2.17069C5.88284 2.04837 6.03535 1.98721 6.21804 1.98721C6.40072 1.98721 6.55323 2.04837 6.67556 2.17069C6.79788 2.29303 6.85904 2.44553 6.85904 2.62821V3.75003H13.1731V2.61219C13.1731 2.43485 13.2329 2.28634 13.3526 2.16669C13.4723 2.04704 13.6208 1.98721 13.7981 1.98721C13.9755 1.98721 14.1239 2.04704 14.2436 2.16669C14.3633 2.28634 14.4231 2.43485 14.4231 2.61219V3.75003H15.577C15.9979 3.75003 16.3542 3.89586 16.6459 4.18753C16.9375 4.47919 17.0834 4.8355 17.0834 5.25644V16.4102C17.0834 16.8312 16.9375 17.1875 16.6459 17.4792C16.3542 17.7708 15.9979 17.9167 15.577 17.9167H4.42316ZM4.42316 16.6667H15.577C15.6411 16.6667 15.6998 16.64 15.7533 16.5865C15.8067 16.5331 15.8334 16.4743 15.8334 16.4102V8.58978H4.16673V16.4102C4.16673 16.4743 4.19344 16.5331 4.24685 16.5865C4.30028 16.64 4.35905 16.6667 4.42316 16.6667Z" fill="#808080"/>
</g>
</svg>
