<svg width="74" height="71" viewBox="0 0 74 71" fill="none" xmlns="http://www.w3.org/2000/svg">
<g filter="url(#filter0_d_3044_2439)">
<mask id="mask0_3044_2439" style="mask-type:alpha" maskUnits="userSpaceOnUse" x="11" y="10" width="49" height="48">
<rect x="11.6667" y="10" width="48" height="48" fill="#D9D9D9"/>
</mask>
<g mask="url(#mask0_3044_2439)">
<path d="M24.5943 41.6923C25.322 41.6923 25.9391 41.4376 26.4455 40.9282C26.9519 40.4187 27.2051 39.8001 27.2051 39.0724C27.2051 38.3447 26.9504 37.7276 26.441 37.2212C25.9316 36.7148 25.313 36.4616 24.5852 36.4616C23.8575 36.4616 23.2404 36.7163 22.734 37.2257C22.2276 37.7351 21.9744 38.3537 21.9744 39.0815C21.9744 39.8092 22.2291 40.4263 22.7385 40.9327C23.248 41.4391 23.8666 41.6923 24.5943 41.6923ZM42.7437 41.6923C43.3719 41.6923 43.9238 41.4955 44.3994 41.1019C44.875 40.7083 45.1641 40.2077 45.2667 39.6C44.6513 39.4538 44.066 39.2288 43.5109 38.925C42.9558 38.6211 42.4346 38.232 41.9474 37.7577L41.1782 36.9885C40.8577 37.2167 40.6026 37.5146 40.4129 37.8822C40.2231 38.2498 40.1282 38.6481 40.1282 39.077C40.1282 39.8034 40.3825 40.4209 40.8911 40.9295C41.3996 41.438 42.0172 41.6923 42.7437 41.6923ZM20.8974 47V49.5C20.8974 49.925 20.7536 50.2812 20.4661 50.5687C20.1787 50.8562 19.8224 51 19.3974 51H18.1667C17.7417 51 17.3855 50.8562 17.098 50.5687C16.8105 50.2812 16.6667 49.925 16.6667 49.5V34.1539L20.7514 22.5001C20.9001 22.0411 21.1732 21.6764 21.5706 21.4059C21.968 21.1353 22.4103 21.0001 22.8975 21.0001H29.7821V22.6923C29.7821 22.9004 29.7904 23.1172 29.8071 23.3426C29.8238 23.568 29.8552 23.7872 29.9013 24H23.4051L20.882 31.154H35.3245L38.3244 34.1539H19.6667V44H47.6667V39.7769C48.2077 39.7231 48.7333 39.5942 49.2436 39.3904C49.7538 39.1866 50.2282 38.9077 50.6667 38.5539V49.5C50.6667 49.925 50.5229 50.2812 50.2354 50.5687C49.9479 50.8562 49.5917 51 49.1667 51H47.9359C47.511 51 47.1547 50.8562 46.8672 50.5687C46.5797 50.2812 46.436 49.925 46.436 49.5V47H20.8974ZM41.666 21.7308C42.1562 21.7308 42.5673 21.565 42.8994 21.2334C43.2314 20.9018 43.3974 20.4909 43.3974 20.0007C43.3974 19.5105 43.2316 19.0994 42.9 18.7673C42.5684 18.4353 42.1575 18.2693 41.6673 18.2693C41.1772 18.2693 40.7661 18.4351 40.434 18.7667C40.102 19.0983 39.9359 19.5092 39.9359 19.9994C39.9359 20.4895 40.1017 20.9006 40.4333 21.2327C40.7649 21.5647 41.1758 21.7308 41.666 21.7308ZM44.9783 34.6L34.9706 24.5923C34.7324 24.3542 34.5389 24.0641 34.39 23.722C34.2412 23.3798 34.1667 23.0301 34.1667 22.6731V15.2116C34.1667 14.4423 34.4304 13.7981 34.9576 13.2789C35.4848 12.7597 36.125 12.5001 36.8782 12.5001H44.3398C44.6968 12.5001 45.0465 12.5745 45.3887 12.7233C45.7308 12.8722 46.0209 13.0657 46.259 13.3039L56.2667 23.3116C56.7948 23.8398 57.0589 24.4808 57.0589 25.2346C57.0589 25.9884 56.7948 26.6295 56.2667 27.1577L48.8244 34.6C48.2962 35.1282 47.6551 35.3923 46.9013 35.3923C46.1475 35.3923 45.5065 35.1282 44.9783 34.6ZM46.4743 31.8693C46.5898 31.9847 46.734 32.0424 46.9071 32.0424C47.0802 32.0424 47.2244 31.9847 47.3398 31.8693L53.5359 25.6731C53.6513 25.5577 53.709 25.4135 53.709 25.2404C53.709 25.0673 53.6513 24.9231 53.5359 24.8077L44.4014 15.6731C44.3372 15.609 44.2667 15.5641 44.1898 15.5385C44.1129 15.5128 44.0359 15.5 43.959 15.5H37.4744C37.3846 15.5 37.3109 15.5288 37.2532 15.5865C37.1955 15.6442 37.1666 15.7179 37.1666 15.8077V22.2923C37.1666 22.3692 37.1795 22.4462 37.2051 22.5231C37.2308 22.6 37.2756 22.6706 37.3397 22.7347L46.4743 31.8693Z" fill="white"/>
</g>
</g>
<defs>
<filter id="filter0_d_3044_2439" x="0.666748" y="0.500061" width="72.3921" height="70.4999" filterUnits="userSpaceOnUse" color-interpolation-filters="sRGB">
<feFlood flood-opacity="0" result="BackgroundImageFix"/>
<feColorMatrix in="SourceAlpha" type="matrix" values="0 0 0 0 0 0 0 0 0 0 0 0 0 0 0 0 0 0 127 0" result="hardAlpha"/>
<feOffset dy="4"/>
<feGaussianBlur stdDeviation="8"/>
<feColorMatrix type="matrix" values="0 0 0 0 0 0 0 0 0 0 0 0 0 0 0 0 0 0 0.12 0"/>
<feBlend mode="normal" in2="BackgroundImageFix" result="effect1_dropShadow_3044_2439"/>
<feBlend mode="normal" in="SourceGraphic" in2="effect1_dropShadow_3044_2439" result="shape"/>
</filter>
</defs>
</svg>
