<svg width="28" height="28" viewBox="0 0 28 28" fill="none" xmlns="http://www.w3.org/2000/svg">
<mask id="mask0_3090_4479" style="mask-type:alpha" maskUnits="userSpaceOnUse" x="0" y="0" width="28" height="28">
<rect x="28" y="28" width="28" height="28" transform="rotate(-180 28 28)" fill="#D9D9D9"/>
</mask>
<g mask="url(#mask0_3090_4479)">
<path d="M16.8584 13.9999L8.28343 5.42487C7.99177 5.13321 7.85079 4.79293 7.86051 4.40404C7.87024 4.01515 8.02093 3.67487 8.3126 3.38321C8.60426 3.09154 8.94454 2.94571 9.33343 2.94571C9.72232 2.94571 10.0626 3.09154 10.3543 3.38321L19.3376 12.3374C19.5709 12.5707 19.7459 12.8332 19.8626 13.1249C19.9793 13.4165 20.0376 13.7082 20.0376 13.9999C20.0376 14.2915 19.9793 14.5832 19.8626 14.8749C19.7459 15.1665 19.5709 15.429 19.3376 15.6624L10.3543 24.6457C10.0626 24.9374 9.71746 25.0783 9.31885 25.0686C8.92024 25.0589 8.5751 24.9082 8.28343 24.6165C7.99177 24.3249 7.84593 23.9846 7.84593 23.5957C7.84593 23.2068 7.99177 22.8665 8.28343 22.5749L16.8584 13.9999Z" fill="#323232"/>
</g>
</svg>
