<svg width="20" height="20" viewBox="0 0 20 20" fill="none" xmlns="http://www.w3.org/2000/svg">
<mask id="mask0_4901_1589" style="mask-type:alpha" maskUnits="userSpaceOnUse" x="0" y="0" width="20" height="20">
<rect width="20" height="20" fill="#D9D9D9"/>
</mask>
<g mask="url(#mask0_4901_1589)">
<path d="M10.0001 10.5623L8.02091 8.58317C7.86814 8.43039 7.67716 8.354 7.448 8.354C7.21883 8.354 7.02091 8.43039 6.85425 8.58317C6.68758 8.74984 6.60425 8.94775 6.60425 9.17692C6.60425 9.40609 6.68758 9.604 6.85425 9.77067L9.41675 12.3332C9.58341 12.4998 9.77786 12.5832 10.0001 12.5832C10.2223 12.5832 10.4167 12.4998 10.5834 12.3332L13.1667 9.74984C13.3334 9.58317 13.4133 9.38873 13.4063 9.1665C13.3994 8.94428 13.3126 8.74984 13.1459 8.58317C12.9792 8.43039 12.7848 8.35053 12.5626 8.34359C12.3404 8.33664 12.1459 8.4165 11.9792 8.58317L10.0001 10.5623ZM10.0001 18.3332C8.8473 18.3332 7.76397 18.1144 6.75008 17.6769C5.73619 17.2394 4.85425 16.6457 4.10425 15.8957C3.35425 15.1457 2.7605 14.2637 2.323 13.2498C1.8855 12.2359 1.66675 11.1526 1.66675 9.99984C1.66675 8.84706 1.8855 7.76373 2.323 6.74984C2.7605 5.73595 3.35425 4.854 4.10425 4.104C4.85425 3.354 5.73619 2.76025 6.75008 2.32275C7.76397 1.88525 8.8473 1.6665 10.0001 1.6665C11.1529 1.6665 12.2362 1.88525 13.2501 2.32275C14.264 2.76025 15.1459 3.354 15.8959 4.104C16.6459 4.854 17.2397 5.73595 17.6772 6.74984C18.1147 7.76373 18.3334 8.84706 18.3334 9.99984C18.3334 11.1526 18.1147 12.2359 17.6772 13.2498C17.2397 14.2637 16.6459 15.1457 15.8959 15.8957C15.1459 16.6457 14.264 17.2394 13.2501 17.6769C12.2362 18.1144 11.1529 18.3332 10.0001 18.3332Z" fill="#323232"/>
</g>
</svg>
