<svg width="20" height="20" viewBox="0 0 20 20" fill="none" xmlns="http://www.w3.org/2000/svg">
<mask id="mask0_4906_996" style="mask-type:alpha" maskUnits="userSpaceOnUse" x="0" y="0" width="20" height="20">
<rect width="20" height="20" fill="#D9D9D9"/>
</mask>
<g mask="url(#mask0_4906_996)">
<path d="M10 17.4503C9.83761 17.4503 9.67522 17.4222 9.51284 17.3662C9.35045 17.3101 9.20354 17.2233 9.07213 17.1057C8.32428 16.4166 7.6245 15.707 6.97279 14.9768C6.32109 14.2465 5.75458 13.5166 5.27327 12.7869C4.79197 12.0572 4.41109 11.3339 4.13065 10.617C3.85019 9.9001 3.70996 9.20779 3.70996 8.54005C3.70996 6.617 4.33202 5.06011 5.57615 3.86941C6.82026 2.6787 8.29488 2.08334 10 2.08334C11.7051 2.08334 13.1797 2.6787 14.4239 3.86941C15.668 5.06011 16.29 6.617 16.29 8.54005C16.29 9.20779 16.1498 9.89877 15.8694 10.613C15.5889 11.3272 15.2094 12.0505 14.7307 12.7829C14.2521 13.5152 13.6869 14.2452 13.0352 14.9728C12.3835 15.7003 11.6837 16.4086 10.9359 17.0977C10.8064 17.2152 10.6592 17.3034 10.4944 17.3622C10.3296 17.4209 10.1648 17.4503 10 17.4503ZM10.0014 9.8878C10.4161 9.8878 10.7706 9.74016 11.0649 9.44489C11.3592 9.14961 11.5064 8.79464 11.5064 8.37999C11.5064 7.96534 11.3588 7.61084 11.0635 7.31651C10.7682 7.02218 10.4132 6.87501 9.99859 6.87501C9.58393 6.87501 9.22944 7.02265 8.93511 7.31793C8.64077 7.6132 8.49361 7.96817 8.49361 8.38282C8.49361 8.79748 8.64125 9.15197 8.93652 9.4463C9.2318 9.74064 9.58677 9.8878 10.0014 9.8878Z" fill="#808080"/>
</g>
</svg>
