<svg width="130" height="20" viewBox="0 0 130 20" fill="none" xmlns="http://www.w3.org/2000/svg">
<g clip-path="url(#clip0_4901_2207)">
<path d="M13.1289 0.703125C12.9219 0.273438 12.4844 0 12.0039 0C11.5234 0 11.0899 0.273438 10.8789 0.703125L8.3672 5.87109L2.75782 6.69922C2.28907 6.76953 1.89845 7.09766 1.75391 7.54688C1.60938 7.99609 1.72657 8.49219 2.06251 8.82422L6.13282 12.8516L5.17188 18.543C5.09376 19.0117 5.28907 19.4883 5.67579 19.7656C6.06251 20.043 6.57423 20.0781 6.9961 19.8555L12.0078 17.1797L17.0195 19.8555C17.4414 20.0781 17.9531 20.0469 18.3399 19.7656C18.7266 19.4844 18.9219 19.0117 18.8438 18.543L17.8789 12.8516L21.9492 8.82422C22.2852 8.49219 22.4063 7.99609 22.2578 7.54688C22.1094 7.09766 21.7227 6.76953 21.2539 6.69922L15.6406 5.87109L13.1289 0.703125Z" fill="#FFA534"/>
</g>
<g clip-path="url(#clip1_4901_2207)">
<path d="M39.6289 0.703125C39.4219 0.273438 38.9844 0 38.5039 0C38.0234 0 37.5899 0.273438 37.3789 0.703125L34.8672 5.87109L29.2578 6.69922C28.7891 6.76953 28.3984 7.09766 28.2539 7.54688C28.1094 7.99609 28.2266 8.49219 28.5625 8.82422L32.6328 12.8516L31.6719 18.543C31.5938 19.0117 31.7891 19.4883 32.1758 19.7656C32.5625 20.043 33.0742 20.0781 33.4961 19.8555L38.5078 17.1797L43.5195 19.8555C43.9414 20.0781 44.4531 20.0469 44.8399 19.7656C45.2266 19.4844 45.4219 19.0117 45.3438 18.543L44.3789 12.8516L48.4492 8.82422C48.7852 8.49219 48.9063 7.99609 48.7578 7.54688C48.6094 7.09766 48.2227 6.76953 47.7539 6.69922L42.1406 5.87109L39.6289 0.703125Z" fill="#FFA534"/>
</g>
<g clip-path="url(#clip2_4901_2207)">
<path d="M66.1289 0.703125C65.9219 0.273438 65.4844 0 65.0039 0C64.5234 0 64.0899 0.273438 63.8789 0.703125L61.3672 5.87109L55.7578 6.69922C55.2891 6.76953 54.8984 7.09766 54.7539 7.54688C54.6094 7.99609 54.7266 8.49219 55.0625 8.82422L59.1328 12.8516L58.1719 18.543C58.0938 19.0117 58.2891 19.4883 58.6758 19.7656C59.0625 20.043 59.5742 20.0781 59.9961 19.8555L65.0078 17.1797L70.0195 19.8555C70.4414 20.0781 70.9531 20.0469 71.3399 19.7656C71.7266 19.4844 71.9219 19.0117 71.8438 18.543L70.8789 12.8516L74.9492 8.82422C75.2852 8.49219 75.4063 7.99609 75.2578 7.54688C75.1094 7.09766 74.7227 6.76953 74.2539 6.69922L68.6406 5.87109L66.1289 0.703125Z" fill="#FFA534"/>
</g>
<g clip-path="url(#clip3_4901_2207)">
<path d="M92.6289 0.703125C92.4219 0.273438 91.9844 0 91.5039 0C91.0234 0 90.5899 0.273438 90.3789 0.703125L87.8672 5.87109L82.2578 6.69922C81.7891 6.76953 81.3984 7.09766 81.2539 7.54688C81.1094 7.99609 81.2266 8.49219 81.5625 8.82422L85.6328 12.8516L84.6719 18.543C84.5938 19.0117 84.7891 19.4883 85.1758 19.7656C85.5625 20.043 86.0742 20.0781 86.4961 19.8555L91.5078 17.1797L96.5195 19.8555C96.9414 20.0781 97.4531 20.0469 97.8399 19.7656C98.2266 19.4844 98.4219 19.0117 98.3438 18.543L97.3789 12.8516L101.449 8.82422C101.785 8.49219 101.906 7.99609 101.758 7.54688C101.609 7.09766 101.223 6.76953 100.754 6.69922L95.1406 5.87109L92.6289 0.703125Z" fill="#FFA534"/>
</g>
<g clip-path="url(#clip4_4901_2207)">
<path d="M119.129 0.703125C118.922 0.273438 118.484 0 118.004 0C117.523 0 117.09 0.273438 116.879 0.703125L114.367 5.87109L108.758 6.69922C108.289 6.76953 107.898 7.09766 107.754 7.54688C107.609 7.99609 107.727 8.49219 108.063 8.82422L112.133 12.8516L111.172 18.543C111.094 19.0117 111.289 19.4883 111.676 19.7656C112.063 20.043 112.574 20.0781 112.996 19.8555L118.008 17.1797L123.02 19.8555C123.441 20.0781 123.953 20.0469 124.34 19.7656C124.727 19.4844 124.922 19.0117 124.844 18.543L123.879 12.8516L127.949 8.82422C128.285 8.49219 128.406 7.99609 128.258 7.54688C128.109 7.09766 127.723 6.76953 127.254 6.69922L121.641 5.87109L119.129 0.703125Z" fill="#FFA534"/>
</g>
<defs>
<clipPath id="clip0_4901_2207">
<rect width="22.5" height="20" fill="white" transform="translate(0.75)"/>
</clipPath>
<clipPath id="clip1_4901_2207">
<rect width="22.5" height="20" fill="white" transform="translate(27.25)"/>
</clipPath>
<clipPath id="clip2_4901_2207">
<rect width="22.5" height="20" fill="white" transform="translate(53.75)"/>
</clipPath>
<clipPath id="clip3_4901_2207">
<rect width="22.5" height="20" fill="white" transform="translate(80.25)"/>
</clipPath>
<clipPath id="clip4_4901_2207">
<rect width="22.5" height="20" fill="white" transform="translate(106.75)"/>
</clipPath>
</defs>
</svg>
