<svg width="48" height="48" viewBox="0 0 48 48" fill="none" xmlns="http://www.w3.org/2000/svg">
<mask id="mask0_4901_652" style="mask-type:alpha" maskUnits="userSpaceOnUse" x="0" y="0" width="48" height="48">
<rect width="48" height="48" fill="#D9D9D9"/>
</mask>
<g mask="url(#mask0_4901_652)">
<path d="M32.2076 28.6152L39.4806 22.3652L40.2806 22.4268C40.7201 22.479 41.0627 22.6619 41.3083 22.9753C41.5539 23.2888 41.6767 23.6284 41.6767 23.9941C41.6767 24.203 41.6377 24.4082 41.5597 24.6096C41.4817 24.811 41.3386 24.9872 41.1306 25.1383L35.7767 29.8037L37.3844 36.8037C37.4049 36.8555 37.4152 36.9139 37.4152 36.9787V37.1538C37.4152 37.5947 37.2632 37.962 36.9594 38.2556C36.6556 38.5491 36.2947 38.6959 35.8768 38.6959C35.7461 38.6959 35.609 38.6805 35.4653 38.6498C35.3216 38.619 35.1857 38.56 35.0575 38.4729L34.4114 38.0729L32.2076 28.6152ZM27.9499 15.4192L25.9268 10.673L26.2038 9.99613C26.331 9.6823 26.5281 9.44038 26.7953 9.27038C27.0624 9.10038 27.34 9.01538 27.628 9.01538C27.9159 9.01538 28.1973 9.09615 28.4722 9.25768C28.747 9.41925 28.9486 9.65515 29.0768 9.96538L31.5191 15.7538L27.9499 15.4192ZM14.7 33.6499L21 29.8499L27.3 33.6999L25.65 26.4999L31.2 21.6999L23.9 21.0499L21 14.2499L18.1 20.9999L10.8 21.6499L16.35 26.4999L14.7 33.6499ZM11.1039 35.7651L13.0154 27.5845L6.66551 22.0807C6.43731 21.8935 6.27832 21.6815 6.18856 21.4448C6.09882 21.208 6.05396 20.9713 6.05396 20.7345C6.05396 20.3104 6.19947 19.9165 6.49051 19.553C6.78154 19.1894 7.18474 18.9807 7.70011 18.9269L16.0825 18.1909L19.3231 10.4846C19.4737 10.1231 19.7072 9.85195 20.0235 9.67118C20.3399 9.49042 20.6638 9.40003 20.9952 9.40003C21.3266 9.40003 21.6517 9.49042 21.9707 9.67118C22.2896 9.85195 22.525 10.1231 22.6769 10.4846L25.9175 18.1909L34.2998 18.9269C34.8152 18.9807 35.2184 19.1892 35.5094 19.5524C35.8004 19.9157 35.946 20.3091 35.946 20.7329C35.946 20.975 35.9011 21.2134 35.8114 21.448C35.7216 21.6826 35.5626 21.8935 35.3344 22.0807L28.9845 27.5845L30.9024 35.766C30.9315 35.8526 30.946 35.9867 30.946 36.1683C30.946 36.6829 30.7657 37.1142 30.4051 37.4622C30.0444 37.8103 29.6237 37.9844 29.1428 37.9844C29.0526 37.9844 28.7332 37.8908 28.1845 37.7036L21 33.3767L13.8154 37.7036C13.6616 37.7908 13.5018 37.8594 13.3361 37.9094C13.1704 37.9594 13.0122 37.9844 12.8616 37.9844C12.3193 37.9844 11.8523 37.7651 11.4607 37.3267C11.069 36.8882 10.9501 36.3677 11.1039 35.7651Z" fill="white"/>
</g>
</svg>
