<svg width="68" height="66" viewBox="0 0 68 66" fill="none" xmlns="http://www.w3.org/2000/svg">
<g filter="url(#filter0_d_3044_2425)">
<mask id="mask0_3044_2425" style="mask-type:alpha" maskUnits="userSpaceOnUse" x="9" y="5" width="48" height="48">
<rect x="9" y="5" width="48" height="48" fill="#D9D9D9"/>
</mask>
<g mask="url(#mask0_3044_2425)">
<path d="M19.6154 46C18.618 46 17.766 45.6467 17.0596 44.9403C16.3532 44.2339 16 43.382 16 42.3846V15.6155C16 14.618 16.3532 13.7661 17.0596 13.0597C17.766 12.3533 18.618 12.0001 19.6154 12.0001H46.3845C47.3819 12.0001 48.2339 12.3533 48.9403 13.0597C49.6467 13.7661 49.9999 14.618 49.9999 15.6155V21.0578H47V15.6155C47 15.436 46.9423 15.2885 46.8269 15.1731C46.7115 15.0577 46.564 15 46.3845 15H19.6154C19.4359 15 19.2885 15.0577 19.1731 15.1731C19.0577 15.2885 18.9999 15.436 18.9999 15.6155V42.3846C18.9999 42.5641 19.0577 42.7115 19.1731 42.8269C19.2885 42.9423 19.4359 43 19.6154 43H46.3845C46.564 43 46.7115 42.9423 46.8269 42.8269C46.9423 42.7115 47 42.5641 47 42.3846V36.9423H49.9999V42.3846C49.9999 43.382 49.6467 44.2339 48.9403 44.9403C48.2339 45.6467 47.3819 46 46.3845 46H19.6154ZM35.6154 38C34.618 38 33.7661 37.6467 33.0597 36.9403C32.3532 36.2339 32 35.382 32 34.3846V23.6155C32 22.618 32.3532 21.7661 33.0597 21.0597C33.7661 20.3533 34.618 20.0001 35.6154 20.0001H48.3845C49.3819 20.0001 50.2339 20.3533 50.9403 21.0597C51.6467 21.7661 51.9999 22.618 51.9999 23.6155V34.3846C51.9999 35.382 51.6467 36.2339 50.9403 36.9403C50.2339 37.6467 49.3819 38 48.3845 38H35.6154ZM48.3845 35C48.564 35 48.7115 34.9423 48.8269 34.8269C48.9422 34.7115 49 34.5641 49 34.3846V23.6155C49 23.436 48.9422 23.2885 48.8269 23.1731C48.7115 23.0577 48.564 23 48.3845 23H35.6154C35.4359 23 35.2885 23.0577 35.173 23.1731C35.0576 23.2885 35 23.436 35 23.6155V34.3846C35 34.5641 35.0576 34.7115 35.173 34.8269C35.2885 34.9423 35.4359 35 35.6154 35H48.3845ZM41 32C41.8333 32 42.5416 31.7083 43.125 31.125C43.7083 30.5417 44 29.8333 44 29C44 28.1667 43.7083 27.4583 43.125 26.875C42.5416 26.2917 41.8333 26 41 26C40.1666 26 39.4583 26.2917 38.875 26.875C38.2916 27.4583 38 28.1667 38 29C38 29.8333 38.2916 30.5417 38.875 31.125C39.4583 31.7083 40.1666 32 41 32Z" fill="white"/>
</g>
</g>
<defs>
<filter id="filter0_d_3044_2425" x="0" y="6.10352e-05" width="68" height="65.9999" filterUnits="userSpaceOnUse" color-interpolation-filters="sRGB">
<feFlood flood-opacity="0" result="BackgroundImageFix"/>
<feColorMatrix in="SourceAlpha" type="matrix" values="0 0 0 0 0 0 0 0 0 0 0 0 0 0 0 0 0 0 127 0" result="hardAlpha"/>
<feOffset dy="4"/>
<feGaussianBlur stdDeviation="8"/>
<feColorMatrix type="matrix" values="0 0 0 0 0 0 0 0 0 0 0 0 0 0 0 0 0 0 0.12 0"/>
<feBlend mode="normal" in2="BackgroundImageFix" result="effect1_dropShadow_3044_2425"/>
<feBlend mode="normal" in="SourceGraphic" in2="effect1_dropShadow_3044_2425" result="shape"/>
</filter>
</defs>
</svg>
