<svg width="203" height="24" viewBox="0 0 203 24" fill="none" xmlns="http://www.w3.org/2000/svg">
<g clip-path="url(#clip0_4901_1950)">
<path d="M34.1049 23.5999V0.524443H46.993V3.22775H37.0509V11.5648H46.993V14.2681H37.0509V23.5999H34.1049Z" fill="#FF4F55"/>
<path d="M52.2481 5.79049C51.9433 5.8011 51.6396 5.74805 51.3557 5.63461C51.0718 5.52117 50.8136 5.34974 50.5972 5.13088C50.3878 4.91873 50.2225 4.66575 50.1113 4.38706C50 4.10838 49.945 3.80971 49.9496 3.5089C49.9423 3.20127 49.9959 2.89529 50.1072 2.60919C50.2184 2.3231 50.3851 2.06275 50.5972 1.84366C50.809 1.61566 51.0653 1.43534 51.3496 1.31429C51.6339 1.19324 51.94 1.13414 52.2481 1.1408C52.5447 1.13663 52.8391 1.19445 53.113 1.31069C53.3869 1.42693 53.6345 1.59912 53.8405 1.81662C54.0527 2.03571 54.2193 2.29606 54.3306 2.58216C54.4418 2.86825 54.4954 3.17424 54.4881 3.48187C54.4953 3.78475 54.4424 4.08599 54.3327 4.3676C54.223 4.64921 54.0587 4.90541 53.8496 5.1209C53.6405 5.33639 53.3909 5.50674 53.1158 5.62179C52.8406 5.73684 52.5455 5.79421 52.2481 5.79049ZM50.8573 23.5999V8.39648H53.6441V23.5999H50.8573Z" fill="#FF4F55"/>
<path d="M58.517 23.5999V8.39649H61.3356V11.1971C61.7302 10.2262 62.4157 9.40689 63.2943 8.85605C64.2765 8.26002 65.4054 7.9618 66.5482 7.9964C68.36 7.9964 69.7366 8.52444 70.6779 9.58054C71.6192 10.6366 72.0881 12.1865 72.0846 14.2302V23.5945H69.2978V15.4846C69.2978 13.7689 69.0006 12.5073 68.406 11.6999C67.8115 10.8925 66.849 10.4834 65.5184 10.4726C64.9286 10.4362 64.3386 10.541 63.7957 10.7785C63.2528 11.016 62.772 11.3797 62.3919 11.8405C61.6277 12.9146 61.2525 14.2253 61.3303 15.5494V23.5945L58.517 23.5999Z" fill="#FF4F55"/>
<path d="M82.8282 23.9946C80.5174 23.9946 78.7091 23.2467 77.4033 21.7508C76.0632 20.1589 75.3635 18.1098 75.4446 16.0144C75.3684 13.9009 76.0946 11.8387 77.4723 10.2564C78.1593 9.49751 79.0007 8.90063 79.9377 8.50747C80.8747 8.11431 81.8848 7.93436 82.8972 7.98018C84.0007 7.96367 85.0875 8.25537 86.0396 8.82361C86.9469 9.35216 87.6844 10.1371 88.1629 11.0836V8.38026H90.9497V23.5837H88.1629V20.929C87.6693 21.8723 86.9143 22.647 85.9919 23.1566C85.0286 23.716 83.937 24.0051 82.8282 23.9946ZM83.2157 21.421C83.9092 21.459 84.6024 21.3394 85.245 21.071C85.8876 20.8027 86.4636 20.3922 86.9314 19.8693C87.84 18.8005 88.3196 17.4221 88.2743 16.009C88.3173 14.5914 87.8383 13.2087 86.9314 12.1325C86.4522 11.6389 85.8822 11.2465 85.2539 10.9777C84.6257 10.7089 83.9515 10.569 83.2701 10.566C82.5886 10.563 81.9133 10.6969 81.2828 10.9602C80.6522 11.2234 80.0789 11.6107 79.5955 12.1C78.6751 13.1829 78.1965 14.5835 78.2579 16.0144C78.2018 17.4418 78.6886 18.8362 79.6168 19.9072C80.0744 20.4083 80.6329 20.803 81.254 21.0643C81.8751 21.3255 82.5442 21.4472 83.2157 21.421Z" fill="#FF4F55"/>
<path d="M95.7749 23.5999V0.524443H98.5935V23.6107L95.7749 23.5999Z" fill="#FF4F55"/>
<path d="M103.684 23.5999V7.88826H107.293V10.9214C107.503 9.94997 108.056 9.09135 108.849 8.51002C109.592 7.96846 110.483 7.67903 111.397 7.68281C111.874 7.67114 112.352 7.71651 112.819 7.81798V11.1917C112.347 11.1428 111.872 11.1211 111.397 11.1268C110.819 11.1022 110.244 11.2196 109.72 11.4689C109.196 11.7183 108.739 12.0924 108.387 12.5596C107.658 13.5148 107.293 14.8808 107.293 16.6578V23.5999H103.684Z" fill="#009FEE"/>
<path d="M129.747 14.9331C129.747 15.4053 129.713 16.0793 129.646 16.9552H118.212C118.202 17.4886 118.303 18.0183 118.508 18.5093C118.713 19.0004 119.017 19.4417 119.401 19.8045C120.284 20.5125 121.39 20.8664 122.512 20.7993C124.211 20.7993 125.357 20.2046 125.952 19.0151H129.593C129.468 19.7453 129.196 20.4412 128.794 21.0591C128.392 21.6769 127.869 22.2033 127.257 22.6051C125.856 23.5656 124.195 24.0552 122.507 24.0054C120.079 24.0054 118.159 23.2629 116.747 21.7779C115.335 20.2929 114.628 18.2816 114.624 15.7441C114.624 13.221 115.332 11.2151 116.747 9.72652C118.163 8.23789 120.044 7.48998 122.39 7.48277C123.372 7.43953 124.353 7.60087 125.272 7.95692C126.191 8.31297 127.029 8.85623 127.735 9.5535C128.412 10.2637 128.94 11.1071 129.285 12.0321C129.631 12.9571 129.788 13.9442 129.747 14.9331ZM118.196 14.1599H126.206C126.226 13.6441 126.142 13.1295 125.96 12.6478C125.777 12.1662 125.5 11.7277 125.145 11.3593C124.361 10.6743 123.347 10.3255 122.316 10.3861C121.227 10.325 120.159 10.6994 119.338 11.4296C118.975 11.7806 118.687 12.2045 118.494 12.6745C118.3 13.1445 118.204 13.6503 118.212 14.1599H118.196Z" fill="#009FEE"/>
<path d="M133.24 23.5999V7.88827H136.849V10.0779C137.844 8.34783 139.521 7.48277 141.881 7.48277C145.632 7.48277 147.508 9.56252 147.508 13.722V23.5999H143.899V15.4089C143.899 13.7004 143.645 12.4749 143.139 11.7324C142.633 10.9899 141.761 10.6186 140.523 10.6186C140.016 10.5888 139.51 10.6748 139.041 10.8704C138.571 11.0659 138.151 11.366 137.81 11.7486C137.111 12.6739 136.769 13.828 136.849 14.9926V23.6432L133.24 23.5999Z" fill="#009FEE"/>
<path d="M158.161 20.4965C158.771 20.5058 159.38 20.4606 159.982 20.3613V23.6053C159.096 23.75 158.199 23.8169 157.302 23.8054C156.78 23.8119 156.259 23.7666 155.746 23.6702C155.201 23.5406 154.677 23.3312 154.191 23.0484C153.546 22.6645 153.053 22.0617 152.8 21.3453C152.439 20.3664 152.27 19.325 152.301 18.2798V10.9592H149.684V7.88826H152.301V3.13584H155.911V7.88826H159.473V10.9592H155.932V17.4472C155.932 18.7051 156.109 19.5305 156.463 19.9234C156.692 20.133 156.961 20.2921 157.253 20.3907C157.546 20.4893 157.855 20.5253 158.161 20.4965Z" fill="#009FEE"/>
<path d="M169.415 24.0054C167.008 24.0054 165.143 23.2305 163.82 21.6806C162.455 20.0184 161.748 17.8981 161.835 15.7333C161.76 13.5622 162.507 11.445 163.921 9.81843C164.63 9.03695 165.498 8.42258 166.464 8.01822C167.43 7.61387 168.472 7.42928 169.515 7.47736C170.503 7.46647 171.479 7.69829 172.361 8.15319C173.187 8.57217 173.884 9.21352 174.378 10.0077V7.88826H177.95V23.5999H174.378V21.4751C173.861 22.2855 173.123 22.9245 172.254 23.3134C171.371 23.7593 170.4 23.9959 169.415 24.0054ZM169.945 20.7614C170.579 20.8023 171.214 20.6961 171.801 20.4507C172.389 20.2053 172.914 19.8272 173.337 19.3449C174.098 18.3145 174.509 17.0602 174.509 15.7711C174.509 14.482 174.098 13.2278 173.337 12.1973C172.45 11.297 171.248 10.7915 169.996 10.7915C168.743 10.7915 167.542 11.297 166.654 12.1973C165.871 13.2239 165.446 14.4871 165.446 15.7873C165.446 17.0876 165.871 18.3507 166.654 19.3773C167.071 19.8368 167.582 20.1967 168.151 20.4313C168.72 20.6659 169.333 20.7694 169.945 20.7344V20.7614Z" fill="#009FEE"/>
<path d="M182.584 23.5999V-0.0162201H186.194V23.5837L182.584 23.5999Z" fill="#009FEE"/>
<path d="M200.542 22.6916C199.448 23.5567 197.964 23.9892 196.088 23.9892C194.407 24.0525 192.756 23.5299 191.406 22.5078C190.823 22.0823 190.349 21.5203 190.024 20.8692C189.699 20.2181 189.532 19.4969 189.538 18.7664H193.147C193.145 19.095 193.224 19.4189 193.377 19.7081C193.53 19.9973 193.752 20.2424 194.023 20.4208C194.692 20.876 195.486 21.1032 196.29 21.0696C196.871 21.101 197.445 20.9209 197.909 20.5614C198.103 20.3986 198.257 20.1925 198.36 19.959C198.463 19.7255 198.512 19.471 198.503 19.2151C198.513 19.008 198.482 18.801 198.411 18.6067C198.339 18.4124 198.23 18.2349 198.089 18.0852C197.625 17.7138 197.078 17.4649 196.497 17.3607L193.418 16.5172C192.434 16.2667 191.557 15.6975 190.918 14.8952C190.32 14.0911 190.011 13.1027 190.042 12.0946C190.039 11.4475 190.189 10.8093 190.48 10.2341C190.772 9.65893 191.195 9.16392 191.714 8.79117C192.944 7.87837 194.44 7.41541 195.961 7.47736C197.857 7.47736 199.347 7.9153 200.43 8.79117C200.958 9.21398 201.38 9.75837 201.662 10.3796C201.943 11.0009 202.076 11.6813 202.049 12.365H198.508C198.521 12.0695 198.462 11.7754 198.339 11.508C198.215 11.2405 198.029 11.0077 197.797 10.8295C197.217 10.4342 196.525 10.2443 195.828 10.2888C195.263 10.2636 194.705 10.4227 194.235 10.743C194.047 10.8646 193.891 11.0321 193.782 11.2302C193.672 11.4284 193.613 11.6511 193.609 11.8784C193.609 12.7326 194.25 13.3399 195.531 13.7004L198.609 14.6087C199.629 14.87 200.544 15.4483 201.226 16.2631C201.953 17.2157 202.288 18.4189 202.161 19.6184C202.033 20.818 201.452 21.92 200.542 22.6916Z" fill="#009FEE"/>
<path d="M23.8601 8.09372H3.94397C3.85105 8.09372 3.76194 8.05612 3.69624 7.9892C3.63054 7.92228 3.59363 7.83152 3.59363 7.73688V2.79522C3.59363 2.07826 3.87325 1.39066 4.37099 0.883695C4.86872 0.376726 5.5438 0.0919132 6.2477 0.0919132H21.5617C22.2656 0.0919132 22.9407 0.376726 23.4384 0.883695C23.9361 1.39066 24.2158 2.07826 24.2158 2.79522V7.76932C24.2158 7.86396 24.1788 7.95472 24.1131 8.02164C24.0474 8.08856 23.9583 8.12615 23.8654 8.12615" fill="#009FEE"/>
<path d="M26.2382 8.27754H1.688C1.36227 8.25618 1.05674 8.10933 0.833479 7.86681C0.610215 7.62429 0.485962 7.3043 0.485962 6.97184C0.485962 6.63939 0.610215 6.31939 0.833479 6.07688C1.05674 5.83436 1.36227 5.6875 1.688 5.66614H26.2382C26.4134 5.65465 26.5892 5.67989 26.7545 5.74031C26.9198 5.80072 27.0712 5.89503 27.1994 6.0174C27.3275 6.13977 27.4296 6.28761 27.4994 6.45177C27.5692 6.61594 27.6053 6.79294 27.6053 6.97184C27.6053 7.15075 27.5692 7.32775 27.4994 7.49191C27.4296 7.65607 27.3275 7.80391 27.1994 7.92628C27.0712 8.04865 26.9198 8.14296 26.7545 8.20338C26.5892 8.26379 26.4134 8.28903 26.2382 8.27754Z" fill="#009FEE"/>
<path d="M2.62749 8.09372C2.62749 8.09372 -2.1923 11.8784 1.22083 18.6312V22.6105C1.22083 22.7333 1.24459 22.855 1.29074 22.9684C1.33688 23.0819 1.40453 23.185 1.4898 23.2719C1.57507 23.3587 1.67631 23.4276 1.78772 23.4746C1.89913 23.5217 2.01855 23.5458 2.13914 23.5458H5.12762C5.24822 23.5458 5.36763 23.5217 5.47905 23.4746C5.59046 23.4276 5.69169 23.3587 5.77697 23.2719C5.86224 23.185 5.92988 23.0819 5.97603 22.9684C6.02218 22.855 6.04593 22.7333 6.04593 22.6105V19.6909H13.9604V8.63438L2.62749 8.09372Z" fill="#FF4F55"/>
<path d="M25.2455 8.09372C25.2455 8.09372 30.0706 11.8243 26.6522 18.6042V22.5835C26.6522 22.8315 26.5554 23.0694 26.3832 23.2449C26.211 23.4203 25.9774 23.5188 25.7339 23.5188H22.7454C22.5019 23.5188 22.2683 23.4203 22.0961 23.2449C21.9238 23.0694 21.8271 22.8315 21.8271 22.5835V19.6909H13.9073V8.63438L25.2455 8.09372Z" fill="#FF4F55"/>
<path d="M6.64054 2.24375H21.0787C21.2772 2.24375 21.4676 2.32406 21.6079 2.46703C21.7483 2.61 21.8271 2.8039 21.8271 3.00608V8.01802C21.8271 8.22021 21.7483 8.41411 21.6079 8.55707C21.4676 8.70004 21.2772 8.78035 21.0787 8.78035H16.0943C15.9959 8.77993 15.8983 8.79929 15.8073 8.83733C15.7162 8.87537 15.6333 8.93134 15.5635 9.00203L13.4987 11.116C13.394 11.2233 13.2603 11.2964 13.1147 11.3261C12.9691 11.3558 12.8181 11.3407 12.681 11.2827C12.5438 11.2247 12.4267 11.1265 12.3445 11.0006C12.2623 10.8746 12.2188 10.7266 12.2194 10.5754V9.54269C12.2194 9.34051 12.1405 9.1466 12.0002 9.00364C11.8598 8.86067 11.6694 8.78035 11.4709 8.78035H6.64054C6.44204 8.78035 6.25167 8.70004 6.11131 8.55707C5.97094 8.41411 5.89209 8.22021 5.89209 8.01802V3.00608C5.89209 2.8039 5.97094 2.61 6.11131 2.46703C6.25167 2.32406 6.44204 2.24375 6.64054 2.24375Z" fill="white"/>
<path d="M5.60535 14.8844C5.60535 15.2245 5.50635 15.5569 5.32087 15.8396C5.13539 16.1224 4.87177 16.3427 4.56333 16.4729C4.25489 16.603 3.91549 16.637 3.58805 16.5707C3.26061 16.5044 2.95984 16.3406 2.72377 16.1002C2.4877 15.8597 2.32694 15.5534 2.2618 15.2199C2.19667 14.8863 2.2301 14.5406 2.35786 14.2265C2.48562 13.9123 2.70198 13.6438 2.97956 13.4549C3.25715 13.266 3.58351 13.1651 3.91736 13.1651C4.36504 13.1651 4.79439 13.3463 5.11095 13.6687C5.42751 13.9911 5.60535 14.4284 5.60535 14.8844Z" fill="#FDFEFF"/>
<path d="M25.7551 14.8844C25.7551 15.2245 25.6561 15.5569 25.4707 15.8396C25.2852 16.1224 25.0215 16.3427 24.7131 16.4729C24.4047 16.603 24.0653 16.637 23.7378 16.5707C23.4104 16.5044 23.1096 16.3406 22.8736 16.1002C22.6375 15.8597 22.4767 15.5534 22.4116 15.2199C22.3465 14.8863 22.3799 14.5406 22.5076 14.2265C22.6354 13.9123 22.8518 13.6438 23.1293 13.4549C23.4069 13.266 23.7333 13.1651 24.0671 13.1651C24.5148 13.1651 24.9442 13.3463 25.2607 13.6687C25.5773 13.9911 25.7551 14.4284 25.7551 14.8844Z" fill="white"/>
</g>
<defs>
<clipPath id="clip0_4901_1950">
<rect width="202.182" height="24" fill="white"/>
</clipPath>
</defs>
</svg>
