<svg width="40" height="40" viewBox="0 0 40 40" fill="none" xmlns="http://www.w3.org/2000/svg">
<mask id="mask0_4901_247" style="mask-type:alpha" maskUnits="userSpaceOnUse" x="0" y="0" width="40" height="40">
<rect width="40" height="40" fill="#D9D9D9"/>
</mask>
<g mask="url(#mask0_4901_247)">
<path d="M13.3333 11.6665C11.9444 11.6665 10.7638 11.1804 9.79159 10.2082C8.81936 9.23595 8.33325 8.05539 8.33325 6.6665C8.33325 5.27762 8.81936 4.09706 9.79159 3.12484C10.7638 2.15261 11.9444 1.6665 13.3333 1.6665C14.3888 1.6665 15.3471 1.979 16.2083 2.604C17.0694 3.229 17.6944 4.02761 18.0833 4.99984H29.9999C30.4721 4.99984 30.868 5.15956 31.1874 5.479C31.5069 5.79845 31.6666 6.19428 31.6666 6.6665C31.6666 7.11095 31.4652 7.42345 31.0624 7.604C30.6596 7.78456 30.3055 8.02762 29.9999 8.33317V9.99984C29.9999 10.4721 29.8402 10.8679 29.5208 11.1873C29.2013 11.5068 28.8055 11.6665 28.3333 11.6665C27.861 11.6665 27.4652 11.5068 27.1458 11.1873C26.8263 10.8679 26.6666 10.4721 26.6666 9.99984V8.33317H18.0833C17.6944 9.30539 17.0694 10.104 16.2083 10.729C15.3471 11.354 14.3888 11.6665 13.3333 11.6665ZM13.3333 8.33317C13.8055 8.33317 14.2013 8.17345 14.5208 7.854C14.8402 7.53456 14.9999 7.13873 14.9999 6.6665C14.9999 6.19428 14.8402 5.79845 14.5208 5.479C14.2013 5.15956 13.8055 4.99984 13.3333 4.99984C12.861 4.99984 12.4652 5.15956 12.1458 5.479C11.8263 5.79845 11.6666 6.19428 11.6666 6.6665C11.6666 7.13873 11.8263 7.53456 12.1458 7.854C12.4652 8.17345 12.861 8.33317 13.3333 8.33317ZM14.9999 29.1665C15.4721 29.1665 15.868 29.0068 16.1874 28.6873C16.5069 28.3679 16.6666 27.9721 16.6666 27.4998C16.6666 27.0276 16.5069 26.6318 16.1874 26.3123C15.868 25.9929 15.4721 25.8332 14.9999 25.8332C14.5277 25.8332 14.1319 25.9929 13.8124 26.3123C13.493 26.6318 13.3333 27.0276 13.3333 27.4998C13.3333 27.9721 13.493 28.3679 13.8124 28.6873C14.1319 29.0068 14.5277 29.1665 14.9999 29.1665ZM24.9999 29.1665C25.4721 29.1665 25.868 29.0068 26.1874 28.6873C26.5069 28.3679 26.6666 27.9721 26.6666 27.4998C26.6666 27.0276 26.5069 26.6318 26.1874 26.3123C25.868 25.9929 25.4721 25.8332 24.9999 25.8332C24.5277 25.8332 24.1319 25.9929 23.8124 26.3123C23.493 26.6318 23.3333 27.0276 23.3333 27.4998C23.3333 27.9721 23.493 28.3679 23.8124 28.6873C24.1319 29.0068 24.5277 29.1665 24.9999 29.1665ZM9.99992 36.6665C9.5277 36.6665 9.13186 36.5068 8.81242 36.1873C8.49297 35.8679 8.33325 35.4721 8.33325 34.9998V24.8748C8.33325 24.6804 8.34714 24.4929 8.37492 24.3123C8.4027 24.1318 8.44436 23.9582 8.49992 23.7915L10.7499 17.2498C10.9721 16.5832 11.3749 16.0415 11.9583 15.6248C12.5416 15.2082 13.1944 14.9998 13.9166 14.9998H26.0833C26.8055 14.9998 27.4583 15.2082 28.0416 15.6248C28.6249 16.0415 29.0277 16.5832 29.2499 17.2498L31.4999 23.7915C31.5555 23.9582 31.5971 24.1318 31.6249 24.3123C31.6527 24.4929 31.6666 24.6804 31.6666 24.8748V34.9998C31.6666 35.4721 31.5069 35.8679 31.1874 36.1873C30.868 36.5068 30.4721 36.6665 29.9999 36.6665C29.5277 36.6665 29.1319 36.5068 28.8124 36.1873C28.493 35.8679 28.3333 35.4721 28.3333 34.9998V33.3332H11.6666V34.9998C11.6666 35.4721 11.5069 35.8679 11.1874 36.1873C10.868 36.5068 10.4721 36.6665 9.99992 36.6665ZM12.7499 21.6665H27.2499L26.0833 18.3332H13.9166L12.7499 21.6665Z" fill="#FF4F55"/>
</g>
</svg>
