<svg width="40" height="40" viewBox="0 0 40 40" fill="none" xmlns="http://www.w3.org/2000/svg">
<mask id="mask0_4901_1292" style="mask-type:alpha" maskUnits="userSpaceOnUse" x="0" y="0" width="40" height="40">
<rect width="40" height="40" fill="#D9D9D9"/>
</mask>
<g mask="url(#mask0_4901_1292)">
<path d="M28.3333 26.6667C26.9444 26.6667 25.7639 26.1806 24.7917 25.2083C23.8194 24.2361 23.3333 23.0556 23.3333 21.6667C23.3333 20.2778 23.8194 19.0972 24.7917 18.125C25.7639 17.1528 26.9444 16.6667 28.3333 16.6667C29.7222 16.6667 30.9028 17.1528 31.875 18.125C32.8472 19.0972 33.3333 20.2778 33.3333 21.6667C33.3333 23.0556 32.8472 24.2361 31.875 25.2083C30.9028 26.1806 29.7222 26.6667 28.3333 26.6667ZM15 33.5V35H8.33333C7.41667 35 6.63194 34.6736 5.97917 34.0208C5.32639 33.3681 5 32.5833 5 31.6667V8.33333C5 7.41667 5.32639 6.63194 5.97917 5.97917C6.63194 5.32639 7.41667 5 8.33333 5H31.6667C32.5833 5 33.3681 5.32639 34.0208 5.97917C34.6736 6.63194 35 7.41667 35 8.33333V16.6667C34.1389 15.5833 33.1667 14.7569 32.0833 14.1875C31 13.6181 29.75 13.3333 28.3333 13.3333C28.3333 12.8611 28.1736 12.4653 27.8542 12.1458C27.5347 11.8264 27.1389 11.6667 26.6667 11.6667H13.3333C12.8611 11.6667 12.4653 11.8264 12.1458 12.1458C11.8264 12.4653 11.6667 12.8611 11.6667 13.3333C11.6667 13.8056 11.8264 14.2014 12.1458 14.5208C12.4653 14.8403 12.8611 15 13.3333 15H23.3333C22.7778 15.4444 22.2778 15.9444 21.8333 16.5C21.3889 17.0556 21.0139 17.6667 20.7083 18.3333H13.3333C12.8611 18.3333 12.4653 18.4931 12.1458 18.8125C11.8264 19.1319 11.6667 19.5278 11.6667 20C11.6667 20.4722 11.8264 20.8681 12.1458 21.1875C12.4653 21.5069 12.8611 21.6667 13.3333 21.6667H20C20 22.25 20.0625 22.8194 20.1875 23.375C20.3125 23.9306 20.4861 24.4722 20.7083 25H13.3333C12.8611 25 12.4653 25.1597 12.1458 25.4792C11.8264 25.7986 11.6667 26.1944 11.6667 26.6667C11.6667 27.1389 11.8264 27.5347 12.1458 27.8542C12.4653 28.1736 12.8611 28.3333 13.3333 28.3333H17.4167C16.6667 28.9722 16.0764 29.7431 15.6458 30.6458C15.2153 31.5486 15 32.5 15 33.5ZM20 38.3333C19.5278 38.3333 19.1319 38.1736 18.8125 37.8542C18.4931 37.5347 18.3333 37.1389 18.3333 36.6667V33.5C18.3333 32.9167 18.4722 32.3681 18.75 31.8542C19.0278 31.3403 19.4167 30.9306 19.9167 30.625C20.8056 30.0972 21.5556 29.7292 22.1667 29.5208C22.7778 29.3125 23.5972 29.125 24.625 28.9583C24.9583 28.9028 25.2917 28.9097 25.625 28.9792C25.9583 29.0486 26.2361 29.2083 26.4583 29.4583L28.3333 31.6667L30.1667 29.4583C30.3889 29.1806 30.6667 29.0139 31 28.9583C31.3333 28.9028 31.6667 28.9028 32 28.9583C33.0278 29.125 33.8472 29.3125 34.4583 29.5208C35.0694 29.7292 35.8194 30.0972 36.7083 30.625C37.2083 30.9306 37.6042 31.3403 37.8958 31.8542C38.1875 32.3681 38.3333 32.9167 38.3333 33.5V36.6667C38.3333 37.1389 38.1736 37.5347 37.8542 37.8542C37.5347 38.1736 37.1389 38.3333 36.6667 38.3333H20Z" fill="#FF4F55"/>
</g>
</svg>
