<svg width="40" height="40" viewBox="0 0 40 40" fill="none" xmlns="http://www.w3.org/2000/svg">
<mask id="mask0_4901_1509" style="mask-type:alpha" maskUnits="userSpaceOnUse" x="0" y="0" width="40" height="40">
<rect width="40" height="40" fill="#D9D9D9"/>
</mask>
<g mask="url(#mask0_4901_1509)">
<path d="M6.66659 33.3332C5.74992 33.3332 4.9652 33.0068 4.31242 32.354C3.65964 31.7012 3.33325 30.9165 3.33325 29.9998V9.99984C3.33325 9.08317 3.65964 8.29845 4.31242 7.64567C4.9652 6.99289 5.74992 6.6665 6.66659 6.6665H33.3333C34.2499 6.6665 35.0346 6.99289 35.6874 7.64567C36.3402 8.29845 36.6666 9.08317 36.6666 9.99984V20.4582C35.7221 19.9582 34.7013 19.7776 33.6041 19.9165C32.5069 20.0554 31.5555 20.5276 30.7499 21.3332L24.9166 27.2082L23.6666 25.9998C22.6944 25.0276 21.5277 24.5484 20.1666 24.5623C18.8055 24.5762 17.6388 25.0693 16.6666 26.0415C15.6666 27.0415 15.1666 28.2221 15.1666 29.5832C15.1666 30.9443 15.6527 32.1109 16.6249 33.0832L16.8749 33.3332H6.66659ZM6.66659 13.3332V19.9998H33.3333V13.3332H6.66659ZM24.9166 31.9165L33.1249 23.7082C33.4583 23.3748 33.8541 23.2151 34.3124 23.229C34.7708 23.2429 35.1666 23.4165 35.4999 23.7498C35.8055 24.0832 35.9652 24.4721 35.9791 24.9165C35.993 25.3609 35.8333 25.7498 35.4999 26.0832L26.0833 35.4998C25.7499 35.8332 25.361 35.9998 24.9166 35.9998C24.4721 35.9998 24.0833 35.8332 23.7499 35.4998L18.9999 30.7498C18.6944 30.4443 18.5346 30.0623 18.5208 29.604C18.5069 29.1457 18.6666 28.7498 18.9999 28.4165C19.3055 28.1109 19.6874 27.9582 20.1458 27.9582C20.6041 27.9582 20.9999 28.1109 21.3333 28.4165L24.9166 31.9165Z" fill="#FF4F55"/>
</g>
</svg>
