<svg width="40" height="40" viewBox="0 0 40 40" fill="none" xmlns="http://www.w3.org/2000/svg">
<mask id="mask0_4901_1143" style="mask-type:alpha" maskUnits="userSpaceOnUse" x="0" y="0" width="40" height="40">
<rect width="40" height="40" fill="#D9D9D9"/>
</mask>
<g mask="url(#mask0_4901_1143)">
<path d="M20 36.6668C17.0556 36.6668 14.6528 36.2016 12.7917 35.271C10.9306 34.3404 10 33.1391 10 31.6668C10 30.6946 10.4028 29.8474 11.2083 29.1252C12.0139 28.4029 13.125 27.8335 14.5417 27.4168L15.5 30.5835C15.0278 30.7224 14.5972 30.896 14.2083 31.1043C13.8194 31.3127 13.5556 31.5002 13.4167 31.6668C13.7778 32.1113 14.6111 32.5002 15.9167 32.8335C17.2222 33.1668 18.5833 33.3335 20 33.3335C21.4167 33.3335 22.7847 33.1668 24.1042 32.8335C25.4236 32.5002 26.2639 32.1113 26.625 31.6668C26.4861 31.5002 26.2222 31.3127 25.8333 31.1043C25.4444 30.896 25.0139 30.7224 24.5417 30.5835L25.5 27.4168C26.9167 27.8335 28.0208 28.4029 28.8125 29.1252C29.6042 29.8474 30 30.6946 30 31.6668C30 33.1391 29.0694 34.3404 27.2083 35.271C25.3472 36.2016 22.9444 36.6668 20 36.6668ZM20 31.6668C19.6944 31.6668 19.4167 31.5765 19.1667 31.396C18.9167 31.2154 18.7361 30.9724 18.625 30.6668C17.9861 28.6946 17.1806 27.0418 16.2083 25.7085C15.2361 24.3752 14.2917 23.0974 13.375 21.8752C12.4861 20.6529 11.7153 19.3891 11.0625 18.0835C10.4097 16.7779 10.0833 15.1668 10.0833 13.2502C10.0833 10.4724 11.0417 8.12516 12.9583 6.2085C14.875 4.29183 17.2222 3.3335 20 3.3335C22.7778 3.3335 25.125 4.29183 27.0417 6.2085C28.9583 8.12516 29.9167 10.4724 29.9167 13.2502C29.9167 15.1668 29.5972 16.7779 28.9583 18.0835C28.3194 19.3891 27.5417 20.6529 26.625 21.8752C25.7361 23.0974 24.7986 24.3752 23.8125 25.7085C22.8264 27.0418 22.0139 28.6946 21.375 30.6668C21.2639 30.9724 21.0833 31.2154 20.8333 31.396C20.5833 31.5765 20.3056 31.6668 20 31.6668ZM20 16.7918C20.9722 16.7918 21.8056 16.4446 22.5 15.7502C23.1944 15.0557 23.5417 14.2224 23.5417 13.2502C23.5417 12.2779 23.1944 11.4446 22.5 10.7502C21.8056 10.0557 20.9722 9.7085 20 9.7085C19.0278 9.7085 18.1944 10.0557 17.5 10.7502C16.8056 11.4446 16.4583 12.2779 16.4583 13.2502C16.4583 14.2224 16.8056 15.0557 17.5 15.7502C18.1944 16.4446 19.0278 16.7918 20 16.7918Z" fill="#FF4F55"/>
</g>
</svg>
